<svg width="60" height="60" viewBox="0 0 60 60" fill="none" xmlns="http://www.w3.org/2000/svg">
<g clip-path="url(#clip0_2587_8692)">
<path d="M30 54C43.2548 54 54 43.2548 54 30C54 16.7452 43.2548 6 30 6C16.7452 6 6 16.7452 6 30C6 43.2548 16.7452 54 30 54Z" fill="#273446"/>
<path d="M30 59C46.0163 59 59 46.0163 59 30C59 13.9837 46.0163 1 30 1C13.9837 1 1 13.9837 1 30C1 46.0163 13.9837 59 30 59Z" stroke="url(#paint0_linear_2587_8692)" stroke-width="2"/>
<path d="M12 11C14.2091 11 16 9.20914 16 7C16 4.79086 14.2091 3 12 3C9.79086 3 8 4.79086 8 7C8 9.20914 9.79086 11 12 11Z" fill="#273446"/>
<path d="M30 28C32.7614 28 35 25.7614 35 23C35 20.2386 32.7614 18 30 18C27.2386 18 25 20.2386 25 23C25 25.7614 27.2386 28 30 28Z" fill="#E8B954"/>
<path d="M37 36.4286C37 39.979 34.2549 40 30.3889 40C26.5229 40 23 39.979 23 36.4286C23 32.8782 26.134 30 30 30C33.866 30 37 32.8782 37 36.4286Z" fill="#E8B954"/>
</g>
<defs>
<linearGradient id="paint0_linear_2587_8692" x1="12.5" y1="7" x2="50" y2="53" gradientUnits="userSpaceOnUse">
<stop stop-color="#273446"/>
<stop offset="1" stop-color="white"/>
</linearGradient>
<clipPath id="clip0_2587_8692">
<rect width="60" height="60" fill="white"/>
</clipPath>
</defs>
</svg>
